PathFileType	4	(X/Y/Z)	s11c0303.trc
DataRate	CameraRate	NumFrames	NumMarkers	Units	OrigDataRate	OrigDataStartFrame	OrigNumFrames
200	200	6	48	mm	200	1250	2000
Frame#	Time	racr			lacr			c7			jug			rlel			rdr			llel			ldr			s2			lic			ric			lasi			rasi			rpsi			lpsi			rgt			lgt			rth1			rth2			rth3			rth4			rlfc			rmfc			rsh1			rsh2			rsh3			rsh4			rlmal			rcal			rtoe			rmt5			lth1			lth2			lth4			lth3			llfc			lmfc			llmal			lcal			lmt5			lsh1			lsh2			lsh3			lsh4			ltoe			SBIKE			LBIKE			RBIKE			
		X1	Y1	Z1	X2	Y2	Z2	X3	Y3	Z3	X4	Y4	Z4	X5	Y5	Z5	X6	Y6	Z6	X7	Y7	Z7	X8	Y8	Z8	X9	Y9	Z9	X10	Y10	Z10	X11	Y11	Z11	X12	Y12	Z12	X13	Y13	Z13	X14	Y14	Z14	X15	Y15	Z15	X16	Y16	Z16	X17	Y17	Z17	X18	Y18	Z18	X19	Y19	Z19	X20	Y20	Z20	X21	Y21	Z21	X22	Y22	Z22	X23	Y23	Z23	X24	Y24	Z24	X25	Y25	Z25	X26	Y26	Z26	X27	Y27	Z27	X28	Y28	Z28	X29	Y29	Z29	X30	Y30	Z30	X31	Y31	Z31	X32	Y32	Z32	X33	Y33	Z33	X34	Y34	Z34	X35	Y35	Z35	X36	Y36	Z36	X37	Y37	Z37	X38	Y38	Z38	X39	Y39	Z39	X40	Y40	Z40	X41	Y41	Z41	X42	Y42	Z42	X43	Y43	Z43	X44	Y44	Z44	X45	Y45	Z45	X46	Y46	Z46	X47	Y47	Z47	X48	Y48	Z48	
1250	6.2500	862.062110	1354.711748	-84.020049	837.493578	1324.466370	-433.417336	837.254761	1457.395961	-257.226630	822.589101	1280.022164	-252.324769	705.258836	1146.019719	58.481403	804.122427	929.583369	-69.908287	605.078417	1135.888999	-567.211629	795.309190	921.217724	-472.031884	231.455886	1274.016604	-247.087587	448.406604	1234.936204	-446.240975	461.097468	1278.922671	-52.940103	466.696744	1166.268439	-403.265731	478.696891	1203.933515	-80.167518	287.173633	1351.475252	-202.606667	288.178906	1335.650294	-294.942065	398.022002	1147.025431	-20.058068	319.532165	1121.965819	-437.643630	504.623321	1053.899459	-21.354639	581.481443	1009.734893	-40.160791	624.944784	934.183793	-50.910573	602.356404	1034.875746	-58.650725	687.982351	847.556759	-71.997126	677.028814	830.924122	-204.232088	558.026976	752.541745	-61.503870	494.178094	695.980995	-82.764351	409.869545	673.597403	-82.919159	508.913839	677.468379	-113.811994	284.919370	622.423622	-93.542466	239.922897	670.561250	-140.074907	342.295480	402.145529	-154.962785	289.054929	449.122240	-82.658988	352.075278	988.848177	-448.634477	384.643157	910.848851	-439.359231	421.109849	915.040537	-433.636631	373.369995	821.895400	-432.084217	385.784395	679.875214	-408.703832	386.395120	667.508651	-281.389078	207.018391	288.577674	-412.888278	145.161178	290.039327	-381.270844	285.335524	136.341244	-454.361110	326.782405	567.470529	-434.269719	317.965843	483.253961	-424.959761	267.995340	410.413564	-425.459340	347.952032	474.370436	-403.081945	378.905555	102.018638	-387.970833	-215.271156	949.414751	-257.403088	-17.826382	80.504738	-460.694974	-17.787959	80.919727	-61.862281	
1251	6.2550	860.165953	1356.144645	-79.864183	839.602229	1328.407581	-430.239197	837.083569	1459.283142	-253.339914	822.923807	1282.044838	-249.642268	702.845707	1145.393564	59.257915	803.862720	929.814247	-69.770529	608.972811	1139.076923	-565.709103	796.196975	921.414943	-470.825345	231.412794	1273.405580	-250.110803	451.007622	1236.143934	-445.932962	458.087869	1278.768943	-51.906301	468.869703	1167.736201	-402.730546	476.651983	1204.517106	-80.237802	285.652153	1351.186937	-204.755010	288.753293	1335.345897	-296.987576	397.791796	1149.405348	-20.175595	321.181884	1121.649294	-438.434022	505.189733	1056.623317	-21.264603	582.662474	1013.850148	-39.269142	627.460241	938.986846	-50.258343	603.637794	1039.680723	-56.929712	692.982400	854.196720	-70.998091	685.589855	837.226746	-201.269687	565.683559	757.662175	-61.074514	502.497976	700.155212	-82.489406	418.465789	676.860911	-82.930040	517.619563	682.187170	-113.563769	293.288864	623.700746	-93.820978	247.340383	671.027037	-140.479256	354.252221	404.429228	-154.992587	300.177795	450.505642	-82.886010	352.081191	989.608910	-449.032595	383.082994	911.054519	-439.396231	419.484776	914.605089	-432.882974	369.819010	822.182232	-432.251299	378.633584	679.907913	-408.201480	378.095114	668.317591	-280.096617	198.298879	289.152885	-412.401540	136.791030	291.393839	-380.735366	274.761303	135.849248	-454.173053	318.166876	567.881508	-434.135561	309.055630	483.539421	-424.809656	258.745179	410.932374	-425.163491	339.051959	474.553561	-403.005450	367.947776	100.232530	-387.966502	-215.350699	949.439625	-257.331174	-17.848261	80.542522	-460.674262	-17.918023	81.149107	-61.790389	
1252	6.2600	858.256842	1357.638316	-75.459529	841.779432	1332.175895	-426.978061	836.709736	1461.334685	-249.407249	823.303130	1283.987031	-247.064373	700.335000	1144.869596	59.911922	803.598534	930.185771	-69.595679	612.762011	1142.190408	-563.946981	797.089434	921.452364	-469.557387	231.236742	1273.039035	-253.109748	453.525583	1237.253671	-445.554399	455.083012	1278.771268	-50.733697	470.733943	1169.461971	-401.986381	474.231403	1205.170933	-80.422972	284.233546	1351.318337	-207.210443	288.828081	1335.677470	-299.575319	397.474710	1152.157271	-20.468509	322.779075	1121.922864	-439.254341	505.715439	1059.488961	-21.443068	583.697187	1017.992065	-38.427736	629.732732	943.962731	-49.579404	604.655303	1044.176971	-55.560157	697.650239	860.761549	-70.046007	691.722238	843.687310	-201.651380	572.976721	762.767841	-60.786015	510.856947	704.790817	-82.335084	426.978356	679.848850	-82.939550	526.564587	686.186494	-113.612666	301.474822	624.185074	-94.102235	254.700878	670.871545	-140.868296	366.139424	406.064867	-154.924411	311.256737	451.280156	-82.939278	352.051372	990.762369	-449.692931	381.540495	911.621664	-439.616092	417.867931	914.583029	-432.494000	366.566642	823.013613	-432.372362	371.825772	680.461855	-408.252285	370.983808	669.330878	-279.594836	189.701090	290.276747	-412.261494	128.664029	293.520849	-380.388177	264.153978	136.071528	-454.029377	309.916048	568.734222	-434.375100	300.566239	484.377493	-425.055381	249.892070	412.208785	-425.587499	330.674765	475.222728	-403.399003	356.870094	99.146511	-388.088402	-215.411034	949.453313	-257.247983	-17.853260	80.623034	-460.737835	-17.823759	81.004447	-61.841532	
1253	6.2650	856.404499	1358.985990	-70.801868	843.900117	1336.021173	-423.701396	836.166037	1463.424640	-245.516750	823.729066	1285.971545	-244.527621	697.789126	1144.524555	60.558405	803.414763	930.632155	-69.397126	616.406877	1145.261173	-562.056805	797.863364	921.487862	-468.250301	231.247201	1273.033697	-256.139885	455.904474	1238.454268	-445.007068	452.069968	1279.019517	-49.541546	472.259715	1171.275855	-401.121234	472.014292	1206.678713	-78.943601	283.082162	1351.742552	-209.768986	289.091405	1335.972736	-301.670162	396.990874	1155.029900	-20.893291	324.247007	1122.557681	-440.127293	506.127300	1062.498649	-21.621508	584.446431	1022.143278	-37.612885	631.659418	948.784167	-48.813140	604.606194	1049.157665	-53.032680	701.744800	867.512406	-68.953262	697.793605	850.150168	-201.454075	580.047122	767.836083	-60.594925	518.738096	708.541520	-82.026270	435.295365	682.574068	-82.876632	535.059090	690.453508	-113.173185	309.493998	624.014750	-94.428154	261.850220	669.964688	-141.247199	378.046306	407.146679	-154.965260	322.339862	451.282086	-83.158842	351.879446	992.032429	-450.489669	379.940317	912.420694	-439.959461	416.226582	914.837265	-432.471845	363.879809	824.405229	-432.732607	365.417740	681.549104	-408.925126	365.113429	670.402439	-280.252494	181.356668	292.152798	-412.416134	120.656963	296.343521	-380.203653	253.638487	136.934566	-453.930181	302.366814	570.144135	-435.166209	292.725640	485.764192	-425.582812	241.696360	413.791957	-425.647757	323.036285	476.387259	-404.235232	345.887825	98.711971	-388.161691	-215.464055	949.495332	-257.193489	-17.846241	80.662366	-460.755048	-17.818903	81.016886	-61.860487	
1254	6.2700	854.405393	1360.363241	-66.134809	845.970772	1339.873481	-420.500926	835.489332	1465.426469	-241.560438	824.274970	1287.871143	-242.074240	695.182733	1144.246193	61.117132	802.549483	931.485629	-69.771941	619.940134	1148.475146	-560.351841	798.589053	921.512181	-467.087803	231.161924	1273.537918	-258.812170	458.083237	1239.662231	-444.607136	448.970315	1279.690541	-48.432771	473.588327	1173.041808	-400.276364	470.034081	1208.431399	-79.703294	282.185546	1352.899398	-212.495118	289.489903	1336.761848	-303.809687	396.082175	1157.987980	-21.286111	325.635962	1123.758967	-440.952374	506.339241	1065.788240	-21.547838	584.721601	1026.665018	-36.217112	633.314624	953.569217	-48.112823	605.882948	1053.296439	-53.037884	705.850023	874.076967	-69.067816	703.146276	856.724830	-201.164849	586.553209	772.750116	-60.380892	526.292762	712.232190	-81.710622	443.428201	684.934933	-82.838535	543.176571	694.522265	-112.690173	317.380389	623.195822	-94.749648	268.796989	668.192843	-141.609732	389.879845	407.691436	-155.055472	333.230669	450.973714	-83.228084	351.609429	993.612862	-451.268152	378.390617	913.664452	-440.533410	414.650381	915.506315	-432.792773	360.973329	825.815642	-433.235909	359.625436	682.979332	-410.193574	359.953149	672.502066	-280.532780	173.273265	294.895242	-412.840286	112.799684	299.897073	-380.142061	243.184502	138.402339	-453.910501	295.814604	572.084091	-436.618445	285.566418	487.693879	-426.516654	234.032277	416.015484	-426.181651	315.981244	478.146362	-405.340693	334.993275	98.983588	-388.188671	-215.490044	949.565380	-257.119675	-17.831339	80.698451	-460.761551	-17.810989	81.083427	-61.879141	
1255	6.2750	852.359110	1361.993520	-61.505760	847.948795	1343.679747	-417.116205	834.706904	1467.526888	-237.678735	824.952257	1289.660051	-239.708761	692.483219	1144.043846	61.477238	805.549496	932.706749	-67.970129	623.291756	1151.324622	-557.822549	799.242430	921.387756	-466.084060	231.332744	1274.600390	-261.288392	460.026397	1241.324413	-444.271645	445.725593	1281.056900	-47.476524	474.904558	1174.724048	-399.646114	468.699128	1211.138030	-79.775334	282.375463	1353.573486	-215.751382	289.948090	1338.001408	-305.662167	396.073974	1160.796051	-21.611612	327.010092	1125.327967	-441.735921	506.440450	1069.138766	-21.215274	584.874960	1031.161914	-34.869624	634.492360	958.368982	-46.746056	606.205975	1057.816022	-51.979944	709.377586	880.531659	-68.550787	707.864265	863.177137	-201.044663	592.413129	777.621977	-60.071031	533.439953	715.520079	-81.286957	451.152346	686.747721	-82.700495	550.816765	697.971699	-112.080427	324.903542	621.759356	-95.051400	275.367027	665.725206	-142.001883	401.546183	407.780882	-155.198260	344.150675	449.886119	-83.428414	351.200644	995.506301	-452.105160	376.927346	915.224228	-441.271470	413.147108	916.664863	-433.542188	358.313230	827.650324	-434.020367	354.661031	684.805168	-411.894897	356.529904	674.323918	-281.937889	165.279994	298.441078	-413.267966	105.005360	304.179632	-380.285422	232.811005	140.673856	-453.874369	290.173591	574.312571	-437.988707	279.187795	490.058478	-427.670734	226.960313	418.897518	-427.008660	309.634787	479.972169	-406.424486	324.202494	100.021949	-388.224187	-215.477717	949.646785	-257.107827	-17.827844	80.746869	-460.723397	-17.782221	81.157474	-61.880049	
